<svg width="118" height="31" viewBox="0 0 118 31" fill="none" xmlns="http://www.w3.org/2000/svg">
<rect width="118" height="31" rx="5" fill="#45B348"/>
<path d="M39.045 14.495L38.58 15.995H41.535L41.07 14.495C40.89 13.945 40.72 13.4 40.56 12.86C40.4 12.31 40.24 11.75 40.08 11.18H40.02C39.87 11.75 39.715 12.31 39.555 12.86C39.395 13.4 39.225 13.945 39.045 14.495ZM36.045 20L39.375 10.16H40.785L44.115 20H42.78L41.85 17H38.265L37.32 20H36.045ZM47.8792 20.18C46.9692 20.18 46.2392 19.85 45.6892 19.19C45.1392 18.52 44.8642 17.58 44.8642 16.37C44.8642 15.58 45.0092 14.9 45.2992 14.33C45.5992 13.75 45.9892 13.305 46.4692 12.995C46.9592 12.685 47.4792 12.53 48.0292 12.53C48.4492 12.53 48.8142 12.605 49.1242 12.755C49.4342 12.905 49.7492 13.11 50.0692 13.37L50.0092 12.125V9.32H51.2542V20H50.2342L50.1292 19.145H50.0842C49.8042 19.425 49.4742 19.67 49.0942 19.88C48.7142 20.08 48.3092 20.18 47.8792 20.18ZM48.1492 19.145C48.7892 19.145 49.4092 18.81 50.0092 18.14V14.33C49.6992 14.05 49.3992 13.855 49.1092 13.745C48.8292 13.625 48.5392 13.565 48.2392 13.565C47.8492 13.565 47.4942 13.685 47.1742 13.925C46.8642 14.155 46.6142 14.48 46.4242 14.9C46.2342 15.31 46.1392 15.795 46.1392 16.355C46.1392 17.225 46.3142 17.91 46.6642 18.41C47.0142 18.9 47.5092 19.145 48.1492 19.145ZM56.1995 20.18C55.2895 20.18 54.5595 19.85 54.0095 19.19C53.4595 18.52 53.1845 17.58 53.1845 16.37C53.1845 15.58 53.3295 14.9 53.6195 14.33C53.9195 13.75 54.3095 13.305 54.7895 12.995C55.2795 12.685 55.7995 12.53 56.3495 12.53C56.7695 12.53 57.1345 12.605 57.4445 12.755C57.7545 12.905 58.0695 13.11 58.3895 13.37L58.3295 12.125V9.32H59.5745V20H58.5545L58.4495 19.145H58.4045C58.1245 19.425 57.7945 19.67 57.4145 19.88C57.0345 20.08 56.6295 20.18 56.1995 20.18ZM56.4695 19.145C57.1095 19.145 57.7295 18.81 58.3295 18.14V14.33C58.0195 14.05 57.7195 13.855 57.4295 13.745C57.1495 13.625 56.8595 13.565 56.5595 13.565C56.1695 13.565 55.8145 13.685 55.4945 13.925C55.1845 14.155 54.9345 14.48 54.7445 14.9C54.5545 15.31 54.4595 15.795 54.4595 16.355C54.4595 17.225 54.6345 17.91 54.9845 18.41C55.3345 18.9 55.8295 19.145 56.4695 19.145ZM67.3277 20.18C66.5477 20.18 66.0027 19.955 65.6927 19.505C65.3927 19.055 65.2427 18.47 65.2427 17.75V13.715H64.1627V12.785L65.3027 12.71L65.4527 10.67H66.4877V12.71H68.4527V13.715H66.4877V17.765C66.4877 18.215 66.5677 18.565 66.7277 18.815C66.8977 19.055 67.1927 19.175 67.6127 19.175C67.7427 19.175 67.8827 19.155 68.0327 19.115C68.1827 19.065 68.3177 19.02 68.4377 18.98L68.6777 19.91C68.4777 19.98 68.2577 20.04 68.0177 20.09C67.7877 20.15 67.5577 20.18 67.3277 20.18ZM72.731 20.18C72.141 20.18 71.586 20.03 71.066 19.73C70.556 19.43 70.141 18.995 69.821 18.425C69.511 17.855 69.356 17.17 69.356 16.37C69.356 15.55 69.511 14.855 69.821 14.285C70.141 13.715 70.556 13.28 71.066 12.98C71.586 12.68 72.141 12.53 72.731 12.53C73.331 12.53 73.886 12.68 74.396 12.98C74.906 13.28 75.316 13.715 75.626 14.285C75.946 14.855 76.106 15.55 76.106 16.37C76.106 17.17 75.946 17.855 75.626 18.425C75.316 18.995 74.906 19.43 74.396 19.73C73.886 20.03 73.331 20.18 72.731 20.18ZM72.731 19.16C73.361 19.16 73.866 18.905 74.246 18.395C74.636 17.875 74.831 17.2 74.831 16.37C74.831 15.53 74.636 14.85 74.246 14.33C73.866 13.81 73.361 13.55 72.731 13.55C72.111 13.55 71.606 13.81 71.216 14.33C70.826 14.85 70.631 15.53 70.631 16.37C70.631 17.2 70.826 17.875 71.216 18.395C71.606 18.905 72.111 19.16 72.731 19.16ZM83.9088 20.18C83.2688 20.18 82.6888 20.03 82.1688 19.73C81.6488 19.43 81.2388 18.995 80.9388 18.425C80.6388 17.855 80.4888 17.17 80.4888 16.37C80.4888 15.55 80.6488 14.855 80.9688 14.285C81.2988 13.715 81.7288 13.28 82.2588 12.98C82.7988 12.68 83.3788 12.53 83.9988 12.53C84.4788 12.53 84.8888 12.615 85.2288 12.785C85.5788 12.955 85.8788 13.155 86.1288 13.385L85.4988 14.195C85.2888 14.005 85.0638 13.85 84.8238 13.73C84.5938 13.61 84.3338 13.55 84.0438 13.55C83.6038 13.55 83.2088 13.67 82.8588 13.91C82.5188 14.14 82.2488 14.47 82.0488 14.9C81.8588 15.32 81.7638 15.81 81.7638 16.37C81.7638 17.2 81.9688 17.875 82.3788 18.395C82.7988 18.905 83.3438 19.16 84.0138 19.16C84.3538 19.16 84.6688 19.09 84.9588 18.95C85.2488 18.8 85.5038 18.625 85.7238 18.425L86.2638 19.25C85.9338 19.54 85.5688 19.77 85.1688 19.94C84.7688 20.1 84.3488 20.18 83.9088 20.18ZM89.4032 20.18C88.7932 20.18 88.2832 20 87.8732 19.64C87.4732 19.27 87.2732 18.76 87.2732 18.11C87.2732 17.31 87.6282 16.7 88.3382 16.28C89.0582 15.85 90.1932 15.55 91.7432 15.38C91.7432 15.07 91.6982 14.775 91.6082 14.495C91.5282 14.215 91.3782 13.99 91.1582 13.82C90.9482 13.64 90.6432 13.55 90.2432 13.55C89.8232 13.55 89.4282 13.63 89.0582 13.79C88.6882 13.95 88.3582 14.13 88.0682 14.33L87.5882 13.475C87.9282 13.255 88.3432 13.045 88.8332 12.845C89.3332 12.635 89.8732 12.53 90.4532 12.53C91.3432 12.53 91.9882 12.805 92.3882 13.355C92.7882 13.895 92.9882 14.62 92.9882 15.53V20H91.9682L91.8632 19.13H91.8182C91.4782 19.41 91.1032 19.655 90.6932 19.865C90.2932 20.075 89.8632 20.18 89.4032 20.18ZM89.7632 19.19C90.1132 19.19 90.4432 19.105 90.7532 18.935C91.0632 18.765 91.3932 18.525 91.7432 18.215V16.19C90.5332 16.34 89.6832 16.565 89.1932 16.865C88.7132 17.165 88.4732 17.55 88.4732 18.02C88.4732 18.43 88.5982 18.73 88.8482 18.92C89.0982 19.1 89.4032 19.19 89.7632 19.19ZM95.2818 20V12.71H96.3018L96.4068 14.03H96.4518C96.7018 13.57 97.0068 13.205 97.3668 12.935C97.7268 12.665 98.1118 12.53 98.5218 12.53C98.8118 12.53 99.0718 12.58 99.3018 12.68L99.0618 13.76C98.9418 13.72 98.8318 13.69 98.7318 13.67C98.6318 13.65 98.5068 13.64 98.3568 13.64C98.0468 13.64 97.7218 13.765 97.3818 14.015C97.0518 14.265 96.7618 14.7 96.5118 15.32V20H95.2818ZM102.777 20.18C101.997 20.18 101.452 19.955 101.142 19.505C100.842 19.055 100.692 18.47 100.692 17.75V13.715H99.612V12.785L100.752 12.71L100.902 10.67H101.937V12.71H103.902V13.715H101.937V17.765C101.937 18.215 102.017 18.565 102.177 18.815C102.347 19.055 102.642 19.175 103.062 19.175C103.192 19.175 103.332 19.155 103.482 19.115C103.632 19.065 103.767 19.02 103.887 18.98L104.127 19.91C103.927 19.98 103.707 20.04 103.467 20.09C103.237 20.15 103.007 20.18 102.777 20.18Z" fill="white"/>
<path d="M26.324 12.1557C26.2267 12.0654 26.111 11.9938 25.9836 11.945C25.8562 11.8962 25.7195 11.8712 25.5815 11.8714H23.4846V11.3875C23.4846 10.4891 23.098 9.62746 22.4098 8.99218C21.7216 8.3569 20.7882 8 19.815 8C18.8418 8 17.9084 8.3569 17.2202 8.99218C16.532 9.62746 16.1454 10.4891 16.1454 11.3875V11.8714H14.0485C13.7704 11.8714 13.5037 11.9734 13.3071 12.1549C13.1105 12.3364 13 12.5826 13 12.8393V19.3723C13 20.5519 14.0812 21.55 15.359 21.55H24.271C24.8891 21.5502 25.4827 21.3271 25.9249 20.9285C26.1474 20.7325 26.3247 20.4969 26.4458 20.2359C26.567 19.975 26.6297 19.6941 26.63 19.4101V12.8393C26.6304 12.7123 26.6036 12.5866 26.5511 12.4693C26.4985 12.3519 26.4214 12.2454 26.324 12.1557ZM21.9119 17.1946H20.3392V18.6464C20.3392 18.7748 20.284 18.8979 20.1857 18.9886C20.0874 19.0794 19.954 19.1304 19.815 19.1304C19.676 19.1304 19.5426 19.0794 19.4443 18.9886C19.346 18.8979 19.2908 18.7748 19.2908 18.6464V17.1946H17.7181C17.579 17.1946 17.4457 17.1437 17.3474 17.0529C17.2491 16.9621 17.1938 16.8391 17.1938 16.7107C17.1938 16.5824 17.2491 16.4593 17.3474 16.3685C17.4457 16.2778 17.579 16.2268 17.7181 16.2268H19.2908V14.775C19.2908 14.6467 19.346 14.5236 19.4443 14.4328C19.5426 14.3421 19.676 14.2911 19.815 14.2911C19.954 14.2911 20.0874 14.3421 20.1857 14.4328C20.284 14.5236 20.3392 14.6467 20.3392 14.775V16.2268H21.9119C22.051 16.2268 22.1843 16.2778 22.2826 16.3685C22.3809 16.4593 22.4362 16.5824 22.4362 16.7107C22.4362 16.8391 22.3809 16.9621 22.2826 17.0529C22.1843 17.1437 22.051 17.1946 21.9119 17.1946ZM22.4362 11.8714H17.1938V11.3875C17.1938 10.7458 17.47 10.1303 17.9616 9.67655C18.4531 9.22278 19.1198 8.96786 19.815 8.96786C20.5102 8.96786 21.1769 9.22278 21.6684 9.67655C22.16 10.1303 22.4362 10.7458 22.4362 11.3875V11.8714Z" fill="white"/>
</svg>
