<svg width="15" height="16" viewBox="0 0 15 16" fill="none" xmlns="http://www.w3.org/2000/svg">
<path d="M14.2966 5.14642C14.1923 5.04941 14.0681 4.97247 13.9314 4.92006C13.7947 4.86765 13.648 4.8408 13.5 4.84107H11.25V4.32133C11.25 3.35641 10.8352 2.43102 10.0967 1.74872C9.35831 1.06642 8.35679 0.683105 7.3125 0.683105C6.26821 0.683105 5.26669 1.06642 4.52827 1.74872C3.78984 2.43102 3.375 3.35641 3.375 4.32133V4.84107H1.125C0.826632 4.84107 0.540483 4.95059 0.329505 5.14553C0.118526 5.34048 0 5.60488 0 5.88057V12.8971C0 14.164 1.16016 15.236 2.53125 15.236H12.0938C12.757 15.2362 13.3939 14.9966 13.8684 14.5684C14.1072 14.358 14.2974 14.1049 14.4274 13.8247C14.5574 13.5444 14.6247 13.2427 14.625 12.9377V5.88057C14.6254 5.74422 14.5967 5.60915 14.5403 5.48314C14.4839 5.35714 14.4011 5.2427 14.2966 5.14642ZM9.5625 10.5583H7.875V12.1175C7.875 12.2554 7.81574 12.3876 7.71025 12.485C7.60476 12.5825 7.46169 12.6373 7.3125 12.6373C7.16332 12.6373 7.02024 12.5825 6.91475 12.485C6.80926 12.3876 6.75 12.2554 6.75 12.1175V10.5583H5.0625C4.91332 10.5583 4.77024 10.5035 4.66475 10.4061C4.55926 10.3086 4.5 10.1764 4.5 10.0385C4.5 9.90069 4.55926 9.76849 4.66475 9.67102C4.77024 9.57355 4.91332 9.51879 5.0625 9.51879H6.75V7.95955C6.75 7.82171 6.80926 7.68951 6.91475 7.59203C7.02024 7.49456 7.16332 7.4398 7.3125 7.4398C7.46169 7.4398 7.60476 7.49456 7.71025 7.59203C7.81574 7.68951 7.875 7.82171 7.875 7.95955V9.51879H9.5625C9.71169 9.51879 9.85476 9.57355 9.96025 9.67102C10.0657 9.76849 10.125 9.90069 10.125 10.0385C10.125 10.1764 10.0657 10.3086 9.96025 10.4061C9.85476 10.5035 9.71169 10.5583 9.5625 10.5583ZM10.125 4.84107H4.5V4.32133C4.5 3.6321 4.79632 2.9711 5.32376 2.48375C5.85121 1.99639 6.56658 1.7226 7.3125 1.7226C8.05842 1.7226 8.77379 1.99639 9.30124 2.48375C9.82868 2.9711 10.125 3.6321 10.125 4.32133V4.84107Z" fill="white"/>
</svg>
