<svg width="40" height="40" viewBox="0 0 40 40" fill="none" xmlns="http://www.w3.org/2000/svg">
<g filter="url(#filter0_d_912_154)">
<circle cx="20" cy="20" r="15" fill="white"/>
</g>
<path d="M11.75 11C11.5511 11 11.3603 11.079 11.2197 11.2197C11.079 11.3603 11 11.5511 11 11.75C11 11.9489 11.079 12.1397 11.2197 12.2803C11.3603 12.421 11.5511 12.5 11.75 12.5H12.119C12.2819 12.5003 12.4402 12.5536 12.5701 12.6518C12.7 12.75 12.7944 12.8879 12.839 13.0445L15.218 21.3695C15.3526 21.8393 15.6364 22.2525 16.0267 22.5467C16.4169 22.8409 16.8923 23 17.381 23H24.2345C24.6843 23.0001 25.1237 22.8654 25.4962 22.6132C25.8686 22.3611 26.157 22.0031 26.324 21.5855L28.535 16.0565C28.6259 15.829 28.6597 15.5827 28.6334 15.3391C28.6071 15.0955 28.5216 14.8621 28.3842 14.6592C28.2469 14.4563 28.062 14.2901 27.8456 14.1752C27.6292 14.0603 27.388 14.0002 27.143 14H14.672L14.2805 12.632C14.1463 12.1622 13.8628 11.7488 13.4728 11.4543C13.0828 11.1599 12.6076 11.0004 12.119 11H11.75ZM16.661 20.9555L15.101 15.5H27.143L24.9305 21.029C24.8748 21.168 24.7787 21.2872 24.6547 21.3711C24.5306 21.4551 24.3843 21.5 24.2345 21.5H17.381C17.2181 21.4997 17.0598 21.4464 16.9299 21.3482C16.8 21.25 16.7056 21.1121 16.661 20.9555ZM17.75 29C18.0455 29 18.3381 28.9418 18.611 28.8287C18.884 28.7157 19.1321 28.5499 19.341 28.341C19.5499 28.1321 19.7157 27.884 19.8287 27.611C19.9418 27.3381 20 27.0455 20 26.75C20 26.4545 19.9418 26.1619 19.8287 25.889C19.7157 25.616 19.5499 25.3679 19.341 25.159C19.1321 24.9501 18.884 24.7843 18.611 24.6713C18.3381 24.5582 18.0455 24.5 17.75 24.5C17.1533 24.5 16.581 24.7371 16.159 25.159C15.7371 25.581 15.5 26.1533 15.5 26.75C15.5 27.3467 15.7371 27.919 16.159 28.341C16.581 28.7629 17.1533 29 17.75 29ZM17.75 27.5C17.5511 27.5 17.3603 27.421 17.2197 27.2803C17.079 27.1397 17 26.9489 17 26.75C17 26.5511 17.079 26.3603 17.2197 26.2197C17.3603 26.079 17.5511 26 17.75 26C17.9489 26 18.1397 26.079 18.2803 26.2197C18.421 26.3603 18.5 26.5511 18.5 26.75C18.5 26.9489 18.421 27.1397 18.2803 27.2803C18.1397 27.421 17.9489 27.5 17.75 27.5ZM23.75 29C24.0455 29 24.3381 28.9418 24.611 28.8287C24.884 28.7157 25.1321 28.5499 25.341 28.341C25.5499 28.1321 25.7157 27.884 25.8287 27.611C25.9418 27.3381 26 27.0455 26 26.75C26 26.4545 25.9418 26.1619 25.8287 25.889C25.7157 25.616 25.5499 25.3679 25.341 25.159C25.1321 24.9501 24.884 24.7843 24.611 24.6713C24.3381 24.5582 24.0455 24.5 23.75 24.5C23.1533 24.5 22.581 24.7371 22.159 25.159C21.7371 25.581 21.5 26.1533 21.5 26.75C21.5 27.3467 21.7371 27.919 22.159 28.341C22.581 28.7629 23.1533 29 23.75 29ZM23.75 27.5C23.5511 27.5 23.3603 27.421 23.2197 27.2803C23.079 27.1397 23 26.9489 23 26.75C23 26.5511 23.079 26.3603 23.2197 26.2197C23.3603 26.079 23.5511 26 23.75 26C23.9489 26 24.1397 26.079 24.2803 26.2197C24.421 26.3603 24.5 26.5511 24.5 26.75C24.5 26.9489 24.421 27.1397 24.2803 27.2803C24.1397 27.421 23.9489 27.5 23.75 27.5Z" fill="black"/>
<defs>
<filter id="filter0_d_912_154" x="0" y="0" width="40" height="40" filterUnits="userSpaceOnUse" color-interpolation-filters="sRGB">
<feFlood flood-opacity="0" result="BackgroundImageFix"/>
<feColorMatrix in="SourceAlpha" type="matrix" values="0 0 0 0 0 0 0 0 0 0 0 0 0 0 0 0 0 0 127 0" result="hardAlpha"/>
<feOffset/>
<feGaussianBlur stdDeviation="2.5"/>
<feComposite in2="hardAlpha" operator="out"/>
<feColorMatrix type="matrix" values="0 0 0 0 0 0 0 0 0 0 0 0 0 0 0 0 0 0 0.2 0"/>
<feBlend mode="normal" in2="BackgroundImageFix" result="effect1_dropShadow_912_154"/>
<feBlend mode="normal" in="SourceGraphic" in2="effect1_dropShadow_912_154" result="shape"/>
</filter>
</defs>
</svg>
