<svg width="25" height="16" viewBox="0 0 25 16" fill="none" xmlns="http://www.w3.org/2000/svg">
<path d="M0 0H25V16H0V0ZM12.5 4C13.6051 4 14.6649 4.42143 15.4463 5.17157C16.2277 5.92172 16.6667 6.93913 16.6667 8C16.6667 9.06087 16.2277 10.0783 15.4463 10.8284C14.6649 11.5786 13.6051 12 12.5 12C11.3949 12 10.3351 11.5786 9.55372 10.8284C8.77232 10.0783 8.33333 9.06087 8.33333 8C8.33333 6.93913 8.77232 5.92172 9.55372 5.17157C10.3351 4.42143 11.3949 4 12.5 4ZM5.55556 2.66667C5.55556 3.37391 5.2629 4.05219 4.74196 4.55228C4.22103 5.05238 3.51449 5.33333 2.77778 5.33333V10.6667C3.51449 10.6667 4.22103 10.9476 4.74196 11.4477C5.2629 11.9478 5.55556 12.6261 5.55556 13.3333H19.4444C19.4444 12.6261 19.7371 11.9478 20.258 11.4477C20.779 10.9476 21.4855 10.6667 22.2222 10.6667V5.33333C21.4855 5.33333 20.779 5.05238 20.258 4.55228C19.7371 4.05219 19.4444 3.37391 19.4444 2.66667H5.55556Z" fill="black"/>
</svg>
