<svg width="27" height="28" viewBox="0 0 27 28" fill="none" xmlns="http://www.w3.org/2000/svg">
<g clip-path="url(#clip0_914_246)">
<path d="M24.4702 0.656351H2.55024C2.05289 0.651098 1.57385 0.85083 1.21822 1.21172C0.862595 1.57261 0.659435 2.06518 0.65332 2.58135V25.4232C0.660541 25.9386 0.864186 26.4301 1.21969 26.79C1.5752 27.15 2.05361 27.3491 2.55024 27.3439H24.4702C24.9676 27.3479 25.4463 27.1475 25.8017 26.7864C26.1572 26.4253 26.3605 25.9328 26.3671 25.4167V2.57479C26.3583 2.06013 26.154 1.56991 25.7988 1.21068C25.4436 0.851442 24.9661 0.652234 24.4702 0.656351Z" fill="#0076B2"/>
<path d="M4.46073 10.6597H8.27776V23.4062H4.46073V10.6597ZM6.3703 4.31592C6.80809 4.31592 7.23605 4.45068 7.60004 4.70316C7.96402 4.95564 8.24767 5.3145 8.41511 5.73432C8.58255 6.15415 8.62626 6.61609 8.54069 7.0617C8.45513 7.50731 8.24415 7.91657 7.93443 8.2377C7.62472 8.55884 7.23019 8.77742 6.80076 8.8658C6.37132 8.95418 5.92628 8.90838 5.52193 8.7342C5.11758 8.56002 4.77209 8.26528 4.52917 7.88728C4.28625 7.50927 4.15681 7.06498 4.15723 6.61061C4.15779 6.00182 4.39119 5.41816 4.80617 4.98788C5.22114 4.55761 5.78372 4.31592 6.3703 4.31592ZM10.6721 10.6597H14.331V12.4097H14.3816C14.8917 11.4078 16.1352 10.3512 17.9921 10.3512C21.8576 10.3425 22.5742 12.9828 22.5742 16.4062V23.4062H18.7572V17.2047C18.7572 15.7281 18.7319 13.8272 16.7739 13.8272C14.8158 13.8272 14.4828 15.4372 14.4828 17.1084V23.4062H10.6721V10.6597Z" fill="white"/>
</g>
<defs>
<clipPath id="clip0_914_246">
<rect width="26.9784" height="28" fill="white" transform="translate(0.0214844)"/>
</clipPath>
</defs>
</svg>
