<svg width="30" height="28" viewBox="0 0 30 28" fill="none" xmlns="http://www.w3.org/2000/svg">
<path d="M27.2569 11.715H26.25V11.6666H15V16.3333H22.0644C21.0338 19.0498 18.2644 20.9999 15 20.9999C10.8581 20.9999 7.5 17.8657 7.5 13.9999C7.5 10.1342 10.8581 6.99992 15 6.99992C16.9119 6.99992 18.6513 7.67308 19.9756 8.77267L23.5112 5.47275C21.2787 3.53084 18.2925 2.33325 15 2.33325C8.09688 2.33325 2.5 7.557 2.5 13.9999C2.5 20.4428 8.09688 25.6666 15 25.6666C21.9031 25.6666 27.5 20.4428 27.5 13.9999C27.5 13.2177 27.4137 12.4541 27.2569 11.715Z" fill="#FFC107"/>
<path d="M3.94141 8.56967L8.04828 11.3808C9.15953 8.81292 11.8508 6.99992 15.0002 6.99992C16.912 6.99992 18.6514 7.67309 19.9758 8.77267L23.5114 5.47275C21.2789 3.53084 18.2927 2.33325 15.0002 2.33325C10.1989 2.33325 6.03516 4.86317 3.94141 8.56967Z" fill="#FF3D00"/>
<path d="M15.0002 25.6666C18.2289 25.6666 21.1627 24.5133 23.3808 22.6379L19.5121 19.5824C18.2149 20.5031 16.6299 21.0011 15.0002 20.9999C11.7489 20.9999 8.98832 19.065 7.94832 16.3647L3.87207 19.296C5.94082 23.0742 10.1421 25.6666 15.0002 25.6666Z" fill="#4CAF50"/>
<path d="M27.2569 11.7152H26.25V11.6667H15V16.3334H22.0644C21.5714 17.6263 20.6833 18.7561 19.51 19.5832L19.5119 19.582L23.3806 22.6375C23.1069 22.8697 27.5 19.8334 27.5 14.0001C27.5 13.2178 27.4137 12.4542 27.2569 11.7152Z" fill="#1976D2"/>
</svg>
