<svg width="28" height="28" viewBox="0 0 28 28" fill="none" xmlns="http://www.w3.org/2000/svg">
<path d="M21.1661 0H6.83381C3.34168 0 0.510742 2.93813 0.510742 6.5625V21.4375C0.510742 25.0619 3.34168 28 6.83381 28H21.1661C24.6582 28 27.4892 25.0619 27.4892 21.4375V6.5625C27.4892 2.93813 24.6582 0 21.1661 0Z" fill="url(#paint0_radial_914_237)"/>
<path d="M21.1661 0H6.83381C3.34168 0 0.510742 2.93813 0.510742 6.5625V21.4375C0.510742 25.0619 3.34168 28 6.83381 28H21.1661C24.6582 28 27.4892 25.0619 27.4892 21.4375V6.5625C27.4892 2.93813 24.6582 0 21.1661 0Z" fill="url(#paint1_radial_914_237)"/>
<path d="M14.0013 3.0625C11.1393 3.0625 10.78 3.07552 9.65599 3.12856C8.53407 3.18194 7.76824 3.36623 7.0982 3.63672C6.40499 3.91606 5.81705 4.2898 5.23132 4.89792C4.64507 5.50594 4.28497 6.11614 4.01497 6.83528C3.75362 7.53091 3.57583 8.32606 3.52536 9.48992C3.47509 10.6566 3.46191 11.0296 3.46191 14.0001C3.46191 16.9706 3.47456 17.3423 3.52557 18.5089C3.5772 19.6733 3.75478 20.4681 4.01518 21.1635C4.28455 21.883 4.64464 22.4932 5.23058 23.1011C5.8162 23.7095 6.40414 24.0842 7.09683 24.3635C7.7674 24.634 8.53333 24.8183 9.65504 24.8717C10.7792 24.9247 11.1381 24.9377 14 24.9377C16.8624 24.9377 17.2205 24.9247 18.3445 24.8717C19.4664 24.8183 20.2331 24.634 20.9037 24.3635C21.5966 24.0842 22.1837 23.7095 22.7692 23.1011C23.3554 22.4932 23.7154 21.883 23.9855 21.1638C24.2446 20.4681 24.4225 19.6731 24.4751 18.5091C24.5256 17.3425 24.5388 16.9706 24.5388 14.0001C24.5388 11.0296 24.5256 10.6568 24.4751 9.49014C24.4225 8.32573 24.2446 7.53102 23.9855 6.83561C23.7154 6.11614 23.3554 5.50594 22.7692 4.89792C22.183 4.28958 21.5968 3.91584 20.903 3.63683C20.2312 3.36623 19.465 3.18183 18.343 3.12856C17.2189 3.07552 16.861 3.0625 13.998 3.0625H14.0013ZM13.0559 5.03355C13.3365 5.03311 13.6496 5.03355 14.0013 5.03355C16.8152 5.03355 17.1486 5.04405 18.2598 5.09644C19.2873 5.14522 19.845 5.32339 20.2165 5.47312C20.7083 5.67131 21.0589 5.90833 21.4275 6.29125C21.7964 6.67406 22.0246 7.03861 22.2161 7.54906C22.3604 7.93406 22.5323 8.51287 22.5791 9.57928C22.6296 10.7323 22.6405 11.0786 22.6405 13.9976C22.6405 16.9166 22.6296 17.263 22.5791 18.4159C22.5321 19.4823 22.3604 20.0611 22.2161 20.4462C22.0252 20.9567 21.7964 21.3201 21.4275 21.7027C21.0587 22.0855 20.7085 22.3225 20.2165 22.5208C19.8454 22.6711 19.2873 22.8489 18.2598 22.8977C17.1488 22.95 16.8152 22.9614 14.0013 22.9614C11.1873 22.9614 10.8538 22.95 9.74293 22.8977C8.71543 22.8484 8.15774 22.6703 7.78594 22.5205C7.29422 22.3222 6.94287 22.0853 6.57402 21.7025C6.20518 21.3197 5.97691 20.956 5.78543 20.4454C5.64116 20.0602 5.46928 19.4814 5.42249 18.415C5.37201 17.262 5.36189 16.9157 5.36189 13.9949C5.36189 11.0741 5.37201 10.7296 5.42249 9.57655C5.46949 8.51014 5.64116 7.93133 5.78543 7.54578C5.97649 7.03533 6.20518 6.67078 6.57413 6.28797C6.94297 5.90516 7.29422 5.66814 7.78605 5.46952C8.15753 5.31912 8.71543 5.14139 9.74293 5.09239C10.7151 5.04678 11.0919 5.03311 13.0559 5.03081V5.03355ZM19.6267 6.84961C18.9286 6.84961 18.3621 7.43695 18.3621 8.16167C18.3621 8.88628 18.9286 9.47417 19.6267 9.47417C20.3249 9.47417 20.8913 8.88628 20.8913 8.16167C20.8913 7.43706 20.3249 6.84917 19.6267 6.84917V6.84961ZM14.0013 8.38316C11.0126 8.38316 8.58939 10.8981 8.58939 14.0001C8.58939 17.1021 11.0126 19.6159 14.0013 19.6159C16.9901 19.6159 19.4125 17.1021 19.4125 14.0001C19.4125 10.8982 16.9899 8.38316 14.0011 8.38316H14.0013ZM14.0013 10.3542C15.9413 10.3542 17.5142 11.9864 17.5142 14.0001C17.5142 16.0136 15.9413 17.646 14.0013 17.646C12.0612 17.646 10.4885 16.0136 10.4885 14.0001C10.4885 11.9864 12.0612 10.3542 14.0013 10.3542Z" fill="white"/>
<defs>
<radialGradient id="paint0_radial_914_237" cx="0" cy="0" r="1" gradientUnits="userSpaceOnUse" gradientTransform="translate(7.67688 30.1565) rotate(-90) scale(27.7501 24.8681)">
<stop stop-color="#FFDD55"/>
<stop offset="0.1" stop-color="#FFDD55"/>
<stop offset="0.5" stop-color="#FF543E"/>
<stop offset="1" stop-color="#C837AB"/>
</radialGradient>
<radialGradient id="paint1_radial_914_237" cx="0" cy="0" r="1" gradientUnits="userSpaceOnUse" gradientTransform="translate(-4.00825 2.01698) rotate(79.0839) scale(12.3873 49.3341)">
<stop stop-color="#3771C8"/>
<stop offset="0.128" stop-color="#3771C8"/>
<stop offset="1" stop-color="#6600FF" stop-opacity="0"/>
</radialGradient>
</defs>
</svg>
