<svg width="27" height="28" viewBox="0 0 27 28" fill="none" xmlns="http://www.w3.org/2000/svg">
<g clip-path="url(#clip0_914_228)">
<path d="M26.9784 14C26.9784 6.26806 20.939 0 13.4892 0C6.03937 0 0 6.26806 0 14C0 20.9877 4.93283 26.7797 11.3815 27.8299V18.0469H7.95653V14H11.3815V10.9156C11.3815 7.40687 13.3954 5.46875 16.4766 5.46875C17.9524 5.46875 19.4961 5.74219 19.4961 5.74219V9.1875H17.7952C16.1195 9.1875 15.5969 10.2667 15.5969 11.3739V14H19.338L18.74 18.0469H15.5969V27.8299C22.0456 26.7797 26.9784 20.9879 26.9784 14Z" fill="#1877F2"/>
<path d="M18.7395 18.0469L19.3376 14H15.5964V11.3739C15.5964 10.2666 16.119 9.1875 17.7947 9.1875H19.4957V5.74219C19.4957 5.74219 17.952 5.46875 16.4761 5.46875C13.3949 5.46875 11.381 7.40688 11.381 10.9156V14H7.95605V18.0469H11.381V27.8299C12.0783 27.9433 12.783 28.0002 13.4887 28C14.1945 28.0002 14.8992 27.9434 15.5964 27.8299V18.0469H18.7395Z" fill="white"/>
</g>
<defs>
<clipPath id="clip0_914_228">
<rect width="26.9784" height="28" fill="white"/>
</clipPath>
</defs>
</svg>
