<svg width="40" height="40" viewBox="0 0 40 40" fill="none" xmlns="http://www.w3.org/2000/svg">
<g filter="url(#filter0_d_912_150)">
<circle cx="20" cy="20" r="15" fill="white"/>
</g>
<path d="M20.1 27.55L20 27.65L19.89 27.55C15.14 23.24 12 20.39 12 17.5C12 15.5 13.5 14 15.5 14C17.04 14 18.54 15 19.07 16.36H20.93C21.46 15 22.96 14 24.5 14C26.5 14 28 15.5 28 17.5C28 20.39 24.86 23.24 20.1 27.55ZM24.5 12C22.76 12 21.09 12.81 20 14.08C18.91 12.81 17.24 12 15.5 12C12.42 12 10 14.41 10 17.5C10 21.27 13.4 24.36 18.55 29.03L20 30.35L21.45 29.03C26.6 24.36 30 21.27 30 17.5C30 14.41 27.58 12 24.5 12Z" fill="black"/>
<defs>
<filter id="filter0_d_912_150" x="0" y="0" width="40" height="40" filterUnits="userSpaceOnUse" color-interpolation-filters="sRGB">
<feFlood flood-opacity="0" result="BackgroundImageFix"/>
<feColorMatrix in="SourceAlpha" type="matrix" values="0 0 0 0 0 0 0 0 0 0 0 0 0 0 0 0 0 0 127 0" result="hardAlpha"/>
<feOffset/>
<feGaussianBlur stdDeviation="2.5"/>
<feComposite in2="hardAlpha" operator="out"/>
<feColorMatrix type="matrix" values="0 0 0 0 0 0 0 0 0 0 0 0 0 0 0 0 0 0 0.2 0"/>
<feBlend mode="normal" in2="BackgroundImageFix" result="effect1_dropShadow_912_150"/>
<feBlend mode="normal" in="SourceGraphic" in2="effect1_dropShadow_912_150" result="shape"/>
</filter>
</defs>
</svg>
