<svg width="15" height="15" viewBox="0 0 15 15" fill="none" xmlns="http://www.w3.org/2000/svg">
<path d="M14.2966 4.46332C14.1923 4.3663 14.0681 4.28937 13.9314 4.23695C13.7947 4.18454 13.648 4.1577 13.5 4.15797H11.25V3.63822C11.25 2.67331 10.8352 1.74791 10.0967 1.06561C9.35831 0.383312 8.35679 0 7.3125 0C6.26821 0 5.26669 0.383312 4.52827 1.06561C3.78984 1.74791 3.375 2.67331 3.375 3.63822V4.15797H1.125C0.826632 4.15797 0.540483 4.26749 0.329505 4.46243C0.118526 4.65737 0 4.92177 0 5.19746V12.214C0 13.4809 1.16016 14.5529 2.53125 14.5529H12.0938C12.757 14.5531 13.3939 14.3135 13.8684 13.8853C14.1072 13.6749 14.2974 13.4218 14.4274 13.1416C14.5574 12.8613 14.6247 12.5596 14.625 12.2546V5.19746C14.6254 5.06112 14.5967 4.92605 14.5403 4.80004C14.4839 4.67403 14.4011 4.55959 14.2966 4.46332ZM9.5625 9.87518H7.875V11.4344C7.875 11.5723 7.81574 11.7045 7.71025 11.8019C7.60476 11.8994 7.46169 11.9542 7.3125 11.9542C7.16332 11.9542 7.02024 11.8994 6.91475 11.8019C6.80926 11.7045 6.75 11.5723 6.75 11.4344V9.87518H5.0625C4.91332 9.87518 4.77024 9.82042 4.66475 9.72295C4.55926 9.62547 4.5 9.49328 4.5 9.35543C4.5 9.21758 4.55926 9.08539 4.66475 8.98791C4.77024 8.89044 4.91332 8.83568 5.0625 8.83568H6.75V7.27645C6.75 7.1386 6.80926 7.0064 6.91475 6.90893C7.02024 6.81146 7.16332 6.7567 7.3125 6.7567C7.46169 6.7567 7.60476 6.81146 7.71025 6.90893C7.81574 7.0064 7.875 7.1386 7.875 7.27645V8.83568H9.5625C9.71169 8.83568 9.85476 8.89044 9.96025 8.98791C10.0657 9.08539 10.125 9.21758 10.125 9.35543C10.125 9.49328 10.0657 9.62547 9.96025 9.72295C9.85476 9.82042 9.71169 9.87518 9.5625 9.87518ZM10.125 4.15797H4.5V3.63822C4.5 2.949 4.79632 2.288 5.32376 1.80064C5.85121 1.31329 6.56658 1.03949 7.3125 1.03949C8.05842 1.03949 8.77379 1.31329 9.30124 1.80064C9.82868 2.288 10.125 2.949 10.125 3.63822V4.15797Z" fill="#35415B"/>
</svg>
