<svg width="24" height="24" viewBox="0 0 24 24" fill="none" xmlns="http://www.w3.org/2000/svg">
<path d="M14.4299 4.31581L17.4879 2.4946L17.4397 6.05353L17.4328 6.56721L17.9465 6.56026L21.5054 6.51206L19.6842 9.57008L19.4213 10.0115L19.8697 10.2623L22.9759 12L19.8697 13.7377L19.4213 13.9885L19.6842 14.4299L21.5054 17.4879L17.9465 17.4397L17.4328 17.4328L17.4397 17.9465L17.4879 21.5054L14.4299 19.6842L13.9885 19.4213L13.7377 19.8697L12 22.9759L10.2623 19.8697L10.0115 19.4213L9.57008 19.6842L6.51206 21.5054L6.56026 17.9465L6.56721 17.4328L6.05353 17.4397L2.4946 17.4879L4.31581 14.4299L4.57868 13.9885L4.13034 13.7377L1.02411 12L4.13034 10.2623L4.57868 10.0115L4.31581 9.57008L2.49461 6.51206L6.05353 6.56026L6.56721 6.56721L6.56026 6.05353L6.51206 2.49461L9.57008 4.31581L10.0115 4.57868L10.2623 4.13034L12 1.02411L13.7377 4.13034L13.9885 4.57868L14.4299 4.31581Z" fill="white" stroke="black"/>
<path d="M8.64062 15.3606L15.3606 8.64062" stroke="#45B348" stroke-linecap="round" stroke-linejoin="round"/>
<path d="M9.60016 11.0402C10.3954 11.0402 11.0402 10.3954 11.0402 9.60016C11.0402 8.80487 10.3954 8.16016 9.60016 8.16016C8.80487 8.16016 8.16016 8.80487 8.16016 9.60016C8.16016 10.3954 8.80487 11.0402 9.60016 11.0402Z" stroke="#45B348" stroke-linecap="round" stroke-linejoin="round"/>
<path d="M14.4 15.84C15.1953 15.84 15.84 15.1953 15.84 14.4C15.84 13.6047 15.1953 12.96 14.4 12.96C13.6047 12.96 12.96 13.6047 12.96 14.4C12.96 15.1953 13.6047 15.84 14.4 15.84Z" stroke="#45B348" stroke-linecap="round" stroke-linejoin="round"/>
</svg>
