<svg width="35" height="11" viewBox="0 0 35 11" fill="none" xmlns="http://www.w3.org/2000/svg">
<path d="M23.1146 0.549143L23.0563 0.554309C22.0646 0.799725 22.2644 2.03714 20.459 2.14306H20.284C20.2585 2.14227 20.233 2.14444 20.2081 2.14952H20.2067C20.1298 2.16585 20.0615 2.20474 20.0128 2.25985C19.964 2.31496 19.9378 2.38306 19.9383 2.45306V3.86098C19.9383 4.03406 20.0929 4.17227 20.284 4.17227H21.2246V10.1436C21.2246 10.3141 21.3763 10.4511 21.5644 10.4511H23.1073C23.1983 10.45 23.2852 10.4171 23.3489 10.3595C23.4126 10.3019 23.4479 10.2243 23.4471 10.1436V4.17227H24.3221C24.5117 4.17227 24.6663 4.03406 24.6663 3.86098V2.45306C24.6663 2.37173 24.6302 2.29365 24.5658 2.23566C24.5014 2.17767 24.4139 2.14441 24.3221 2.14306H23.4296V0.832017C23.4296 0.757538 23.3966 0.686031 23.3377 0.632886C23.2788 0.57974 23.1987 0.550497 23.1146 0.549143ZM29.2761 2.06039C28.6956 2.06039 28.1648 2.25414 27.7565 2.5706V2.41043C27.7507 2.33317 27.7124 2.26063 27.6493 2.20709C27.5861 2.15354 27.5026 2.12287 27.4152 2.1211H25.8548C25.7625 2.12246 25.6745 2.15608 25.6101 2.21462C25.5456 2.27317 25.5099 2.35191 25.5106 2.43368V10.0803C25.5099 10.1621 25.5456 10.2409 25.6101 10.2994C25.6745 10.358 25.7625 10.3916 25.8548 10.3929H27.4152C27.5902 10.3929 27.7317 10.2754 27.755 10.123V4.63339C27.749 4.50023 27.8024 4.37033 27.9037 4.27173C28.0049 4.17314 28.1458 4.11375 28.2961 4.10639H28.5819C28.7027 4.1139 28.8179 4.15453 28.9115 4.22264C28.9797 4.27261 29.0342 4.33567 29.0709 4.40706C29.1075 4.47845 29.1253 4.55629 29.1229 4.63468V9.89693L29.1288 10.0971C29.1284 10.1789 29.1645 10.2575 29.2292 10.3158C29.2939 10.3741 29.3821 10.4074 29.4744 10.4084H31.0348C31.1239 10.4069 31.2089 10.3752 31.2726 10.32C31.3363 10.2648 31.3738 10.1902 31.3775 10.1114L31.3761 4.62693C31.3761 4.4461 31.4665 4.28335 31.6298 4.18777C31.7147 4.13673 31.8133 4.10644 31.9156 4.09993H32.2044C32.5398 4.12577 32.744 4.35827 32.744 4.62693C32.7513 6.4301 32.7498 8.2436 32.7498 10.0829C32.7494 10.1647 32.7855 10.2433 32.8503 10.3016C32.915 10.3599 33.0031 10.3932 33.0954 10.3942H34.6558C34.8454 10.3942 35 10.2547 35 10.0829V4.21489C35 3.81448 34.9504 3.64398 34.8833 3.4696C34.7281 3.06072 34.4323 2.70512 34.0374 2.45264C33.6425 2.20016 33.1683 2.06345 32.6813 2.06168H32.6594C32.3444 2.06191 32.0328 2.11933 31.7438 2.23041C31.4549 2.3415 31.1947 2.50387 30.9794 2.70752C30.555 2.30968 29.9586 2.06168 29.2979 2.06168L29.2761 2.06039ZM0.338346 2.14177C0.293532 2.1421 0.249232 2.15026 0.207975 2.16576C0.166719 2.18126 0.129314 2.20381 0.0978963 2.23212C0.0664788 2.26042 0.0416641 2.29394 0.0248692 2.33074C0.00807421 2.36754 -0.000372091 2.40691 1.25715e-05 2.4466V10.0984C1.25715e-05 10.2689 0.140013 10.4059 0.315013 10.4097H1.9046C2.09418 10.4097 2.25022 10.2715 2.25022 10.0997L2.25605 7.95814H3.74793C4.99772 7.95814 5.86689 7.17668 5.86689 6.04518V4.0586C5.86689 2.92581 4.99772 2.14177 3.74793 2.14177H0.338346ZM13.51 2.14177C13.4177 2.14279 13.3296 2.17608 13.2648 2.23438C13.2001 2.29269 13.164 2.37129 13.1644 2.45306V5.64348C13.1644 6.85764 14.1225 7.72048 15.4671 7.72048H16.4515C16.4515 7.72048 16.4748 7.72048 16.5054 7.72564C16.5953 7.73546 16.6779 7.77418 16.7376 7.83444C16.7973 7.89469 16.8299 7.97227 16.8292 8.05243C16.8292 8.22035 16.6892 8.35598 16.5098 8.37664L16.4836 8.38181L16.0417 8.38956H14.2027C14.1109 8.39092 14.0234 8.42417 13.959 8.48216C13.8946 8.54015 13.8585 8.61823 13.8586 8.69956V10.1075C13.8578 10.1893 13.8935 10.268 13.958 10.3265C14.0224 10.3851 14.1104 10.4187 14.2027 10.4201H16.7548C18.0965 10.4201 19.0546 9.55593 19.0546 8.34306V2.45306C19.0546 2.37173 19.0185 2.29365 18.9542 2.23566C18.8898 2.17767 18.8022 2.14441 18.7104 2.14306H17.15C17.0582 2.14441 16.9707 2.17767 16.9063 2.23566C16.8419 2.29365 16.8058 2.37173 16.8058 2.45306C16.7986 3.4696 16.8058 4.42285 16.8058 5.36577C16.8047 5.4511 16.7659 5.53265 16.6978 5.59299C16.6297 5.65333 16.5376 5.68768 16.4413 5.68868H15.7865C15.6889 5.68766 15.5957 5.65243 15.5274 5.59069C15.459 5.52896 15.4211 5.44576 15.4219 5.35931C15.4292 4.38539 15.4146 3.42181 15.4146 2.45306C15.4146 2.37173 15.3785 2.29365 15.3142 2.23566C15.2498 2.17767 15.1622 2.14441 15.0704 2.14306L13.51 2.14177ZM7.67085 2.14952C7.62631 2.14814 7.58192 2.15463 7.54025 2.16862C7.49858 2.18261 7.46048 2.20381 7.42817 2.23099C7.39586 2.25817 7.36998 2.29077 7.35205 2.32691C7.33413 2.36304 7.32451 2.40197 7.32376 2.44143V3.76281C7.32376 3.93331 7.48855 4.07281 7.69126 4.07281H9.75189C9.91522 4.09477 10.0436 4.20198 10.0625 4.36989V4.55073C10.0436 4.71089 9.91668 4.82714 9.76064 4.84006H8.7398C7.38355 4.84006 6.41522 5.65381 6.41522 6.79693V8.43606C6.41522 9.57273 7.24647 10.3813 8.59543 10.3813H11.4246C11.9321 10.3813 12.3433 10.0326 12.3433 9.60631V4.26398C12.3433 2.96714 11.6025 2.14952 9.83501 2.14952H7.67085ZM2.25605 4.18002H3.2448C3.44751 4.18002 3.60939 4.32856 3.60939 4.51068V5.59052C3.60997 5.63343 3.60099 5.67603 3.58298 5.71587C3.56497 5.75572 3.53828 5.79203 3.50442 5.82274C3.47057 5.85344 3.43022 5.87794 3.38567 5.89483C3.34112 5.91172 3.29326 5.92068 3.2448 5.92118H3.09897C2.818 5.92291 2.53703 5.92291 2.25605 5.92118V4.18002ZM9.06647 6.73364H9.71543C9.91814 6.73364 10.0829 6.87314 10.0829 7.04364V8.24748C10.0834 8.28106 10.0765 8.31441 10.0625 8.34564C10.0365 8.40844 9.98921 8.46254 9.92704 8.50049C9.86487 8.53843 9.79093 8.55834 9.71543 8.55748H9.06647C8.97143 8.55921 8.87946 8.5276 8.81062 8.46953C8.74178 8.41146 8.70164 8.33164 8.69897 8.24748V7.04235C8.69897 6.87185 8.86376 6.73364 9.06647 6.73364Z" fill="black"/>
</svg>
