<svg width="50" height="50" viewBox="0 0 50 50" fill="none" xmlns="http://www.w3.org/2000/svg">
<rect width="50" height="50" rx="25" fill="#412493"/>
<rect x="13.0024" y="15" width="24.2" height="4.4" rx="2.2" fill="#EEEEEE"/>
<rect x="28.1982" y="41.2002" width="23.8" height="4.4" rx="2.2" transform="rotate(-90 28.1982 41.2002)" fill="#EEEEEE"/>
<rect x="17.7979" y="32.4004" width="14.8" height="4.4" rx="2.2" transform="rotate(-90 17.7979 32.4004)" fill="#EEEEEE"/>
<rect x="18.999" y="30.2002" width="10.4" height="4.4" rx="2.2" fill="#EEEEEE"/>
<path d="M30.0503 16.7845C29.2853 16.9776 28.4772 16.7179 27.968 16.1151L21.5301 8.49483C20.2627 6.99468 20.7848 4.69844 22.5762 3.89372C23.9588 3.27263 25.5872 3.79872 26.345 5.11137L31.3329 13.7506C32.0178 14.9369 31.3785 16.4492 30.0503 16.7845Z" fill="#EEEEEE"/>
<ellipse cx="20.3979" cy="31.8992" rx="2.6" ry="2.7" fill="#EEEEEE"/>
<rect x="22.1973" y="19.3994" width="6" height="10.8" fill="#EEEEEE"/>
<path d="M22.1973 22.3006C22.1973 20.8094 23.4061 19.6006 24.8973 19.6006H25.1973C26.8541 19.6006 28.1973 20.9437 28.1973 22.6006V28.9006C28.1973 29.729 27.5257 30.4006 26.6973 30.4006C24.212 30.4006 22.1973 28.3859 22.1973 25.9006V22.3006Z" fill="#412493"/>
</svg>
