<svg width="22" height="17" viewBox="0 0 22 17" fill="none" xmlns="http://www.w3.org/2000/svg">
<path d="M9.35549 7.04153H12.0588V10.3651C11.6903 10.5074 11.1989 10.5549 10.8304 10.5549C9.84774 10.5549 9.35549 10.1752 9.35549 9.32025V7.04153ZM21.7031 10.4529C20.307 15.021 14.3834 17.8493 8.47274 16.7705C2.56112 15.6925 -1.09915 11.1145 0.296942 6.54711C1.69303 1.97905 7.61656 -0.849343 13.5273 0.229455C19.4389 1.30825 23.0991 5.88553 21.7031 10.4529ZM15.9913 6.2822C15.9875 6.11948 15.9022 5.96423 15.7533 5.84916C15.6043 5.73408 15.4034 5.66814 15.1929 5.66523H13.7179L10.3391 2.67463C10.032 2.38988 9.54066 2.29497 9.04932 2.38988L7.88148 2.67393C7.69723 2.72139 7.63581 2.91122 7.75865 3.00614L11.4446 5.71198H5.85381C5.66955 5.71198 5.54672 5.8069 5.54672 5.94928V6.42386C5.54672 6.75607 5.91522 7.04082 6.34514 7.04082H7.20498V9.31954C7.20498 11.0288 8.3719 12.0254 10.3382 12.0254C10.9523 12.0254 11.4437 11.9779 12.0588 11.7881V13.3075C12.0588 13.7346 12.4887 14.0668 13.0414 14.0668H13.9013C13.997 14.0621 14.0873 14.0306 14.1551 13.9782C14.2229 13.9258 14.2637 13.8561 14.2698 13.7821V6.99407H15.6833C15.8675 6.99407 15.9904 6.89916 15.9904 6.75678L15.9913 6.2822Z" fill="black"/>
</svg>
