<svg width="40" height="40" viewBox="0 0 40 40" fill="none" xmlns="http://www.w3.org/2000/svg">
<g filter="url(#filter0_d_912_158)">
<circle cx="20" cy="20" r="15" fill="white"/>
</g>
<mask id="path-2-inside-1_912_158" fill="white">
<path d="M9.22831 31.2224C9.30713 31.2451 9.39088 31.2326 9.4614 31.1876C9.53191 31.1426 9.58351 31.0687 9.605 30.9821C10.239 28.3729 12.8156 27.6967 14.3556 27.292C14.7415 27.1908 15.0462 27.1107 15.2444 27.0164C16.9986 26.1765 17.5705 24.8254 17.7416 23.8396C17.7517 23.7809 17.7477 23.7203 17.7299 23.664C17.7121 23.6076 17.6811 23.5574 17.64 23.5184C16.7266 22.6487 15.9559 21.3431 15.4697 19.8413C15.456 19.7982 15.4344 19.7587 15.4063 19.7252C14.7631 18.9539 14.3938 18.1385 14.3938 17.4887C14.3938 17.1092 14.5236 16.8546 14.816 16.6624C14.8598 16.6336 14.8964 16.5931 14.9225 16.5448C14.9486 16.4964 14.9634 16.4417 14.9656 16.3854C15.1016 12.9269 17.3347 10.2043 20.0738 10.1867L20.1396 10.1914C22.8922 10.2335 25.1112 13.0145 25.1906 16.5219C25.1917 16.5698 25.2021 16.617 25.2209 16.6602C25.2398 16.7034 25.2668 16.7416 25.3002 16.7724C25.4928 16.9524 25.5827 17.1805 25.5827 17.4901C25.5827 18.0339 25.3199 18.7027 24.8434 19.3721C24.8207 19.4043 24.8033 19.4406 24.7917 19.4794C24.2993 21.2012 23.4154 22.7214 22.3678 23.6515C22.3244 23.6902 22.2913 23.7411 22.272 23.7988C22.2527 23.8565 22.248 23.919 22.2583 23.9794C22.4294 24.9646 23.0012 26.315 24.7554 27.1562C24.9629 27.2553 25.2848 27.3327 25.6929 27.4298C27.2175 27.7937 29.7688 28.4041 30.3948 30.9821C30.4053 31.0251 30.4234 31.0655 30.4481 31.1008C30.4727 31.1362 30.5034 31.1658 30.5385 31.1881C30.5735 31.2104 30.6122 31.2248 30.6523 31.2306C30.6924 31.2363 30.7331 31.2333 30.7721 31.2217C30.8112 31.2102 30.8478 31.1902 30.8798 31.163C30.9119 31.1358 30.9387 31.1019 30.9589 31.0633C30.9791 31.0246 30.9922 30.982 30.9974 30.9378C31.0026 30.8935 30.9999 30.8486 30.9894 30.8055C30.2662 27.827 27.3757 27.1365 25.8234 26.7658C25.4633 26.6796 25.1524 26.6056 25.001 26.5323C23.8562 25.9837 23.1508 25.1479 22.9015 24.0439C23.9645 23.0371 24.8539 21.4836 25.3623 19.7415C25.9021 18.9675 26.1988 18.1704 26.1988 17.4894C26.1988 17.0352 26.0659 16.6563 25.8024 16.3603C25.6559 12.5555 23.1945 9.55933 20.1396 9.51112L20.0479 9.50977C17.0485 9.52742 14.5766 12.4448 14.3605 16.1838C13.9752 16.4961 13.7795 16.934 13.7795 17.4901C13.7795 18.2933 14.1912 19.254 14.912 20.1353C15.41 21.6445 16.1818 22.9705 17.1008 23.8986C16.8528 25.0067 16.1468 25.8452 14.9994 26.3944C14.8511 26.4657 14.5556 26.5438 14.2134 26.6334C12.6494 27.0435 9.73919 27.8073 9.01041 30.8069C8.98937 30.8939 9.0005 30.9865 9.04136 31.0644C9.08222 31.1424 9.14946 31.1992 9.22831 31.2224Z"/>
</mask>
<path d="M9.22831 31.2224C9.30713 31.2451 9.39088 31.2326 9.4614 31.1876C9.53191 31.1426 9.58351 31.0687 9.605 30.9821C10.239 28.3729 12.8156 27.6967 14.3556 27.292C14.7415 27.1908 15.0462 27.1107 15.2444 27.0164C16.9986 26.1765 17.5705 24.8254 17.7416 23.8396C17.7517 23.7809 17.7477 23.7203 17.7299 23.664C17.7121 23.6076 17.6811 23.5574 17.64 23.5184C16.7266 22.6487 15.9559 21.3431 15.4697 19.8413C15.456 19.7982 15.4344 19.7587 15.4063 19.7252C14.7631 18.9539 14.3938 18.1385 14.3938 17.4887C14.3938 17.1092 14.5236 16.8546 14.816 16.6624C14.8598 16.6336 14.8964 16.5931 14.9225 16.5448C14.9486 16.4964 14.9634 16.4417 14.9656 16.3854C15.1016 12.9269 17.3347 10.2043 20.0738 10.1867L20.1396 10.1914C22.8922 10.2335 25.1112 13.0145 25.1906 16.5219C25.1917 16.5698 25.2021 16.617 25.2209 16.6602C25.2398 16.7034 25.2668 16.7416 25.3002 16.7724C25.4928 16.9524 25.5827 17.1805 25.5827 17.4901C25.5827 18.0339 25.3199 18.7027 24.8434 19.3721C24.8207 19.4043 24.8033 19.4406 24.7917 19.4794C24.2993 21.2012 23.4154 22.7214 22.3678 23.6515C22.3244 23.6902 22.2913 23.7411 22.272 23.7988C22.2527 23.8565 22.248 23.919 22.2583 23.9794C22.4294 24.9646 23.0012 26.315 24.7554 27.1562C24.9629 27.2553 25.2848 27.3327 25.6929 27.4298C27.2175 27.7937 29.7688 28.4041 30.3948 30.9821C30.4053 31.0251 30.4234 31.0655 30.4481 31.1008C30.4727 31.1362 30.5034 31.1658 30.5385 31.1881C30.5735 31.2104 30.6122 31.2248 30.6523 31.2306C30.6924 31.2363 30.7331 31.2333 30.7721 31.2217C30.8112 31.2102 30.8478 31.1902 30.8798 31.163C30.9119 31.1358 30.9387 31.1019 30.9589 31.0633C30.9791 31.0246 30.9922 30.982 30.9974 30.9378C31.0026 30.8935 30.9999 30.8486 30.9894 30.8055C30.2662 27.827 27.3757 27.1365 25.8234 26.7658C25.4633 26.6796 25.1524 26.6056 25.001 26.5323C23.8562 25.9837 23.1508 25.1479 22.9015 24.0439C23.9645 23.0371 24.8539 21.4836 25.3623 19.7415C25.9021 18.9675 26.1988 18.1704 26.1988 17.4894C26.1988 17.0352 26.0659 16.6563 25.8024 16.3603C25.6559 12.5555 23.1945 9.55933 20.1396 9.51112L20.0479 9.50977C17.0485 9.52742 14.5766 12.4448 14.3605 16.1838C13.9752 16.4961 13.7795 16.934 13.7795 17.4901C13.7795 18.2933 14.1912 19.254 14.912 20.1353C15.41 21.6445 16.1818 22.9705 17.1008 23.8986C16.8528 25.0067 16.1468 25.8452 14.9994 26.3944C14.8511 26.4657 14.5556 26.5438 14.2134 26.6334C12.6494 27.0435 9.73919 27.8073 9.01041 30.8069C8.98937 30.8939 9.0005 30.9865 9.04136 31.0644C9.08222 31.1424 9.14946 31.1992 9.22831 31.2224Z" fill="black"/>
<path d="M9.22831 31.2224L7.81461 36.0184L7.83085 36.0232L7.84711 36.0279L9.22831 31.2224ZM9.605 30.9821L14.4579 32.1858L14.4608 32.1742L14.4636 32.1626L9.605 30.9821ZM14.3556 27.292L13.0878 22.4554L13.0849 22.4562L14.3556 27.292ZM15.2444 27.0164L17.394 31.5307L17.4035 31.5262L15.2444 27.0164ZM17.7416 23.8396L22.6679 24.6947L22.668 24.6942L17.7416 23.8396ZM17.64 23.5184L14.1922 27.1395L14.1982 27.1453L17.64 23.5184ZM15.4697 19.8413L10.7055 21.3587L10.7091 21.3701L10.7128 21.3814L15.4697 19.8413ZM15.4063 19.7252L11.5664 22.9275L11.575 22.9378L15.4063 19.7252ZM14.816 16.6624L17.562 20.8409L17.5684 20.8367L14.816 16.6624ZM14.9656 16.3854L9.96943 16.1889L9.96926 16.1935L14.9656 16.3854ZM20.0738 10.1867L20.4337 5.19964L20.2379 5.18551L20.0416 5.18678L20.0738 10.1867ZM20.1396 10.1914L19.7798 15.1785L19.9213 15.1887L20.0632 15.1908L20.1396 10.1914ZM25.1906 16.5219L20.1919 16.6351L20.1919 16.6377L25.1906 16.5219ZM25.3002 16.7724L28.7128 13.1182L28.7034 13.1093L28.6938 13.1005L25.3002 16.7724ZM24.8434 19.3721L20.7697 16.473L20.7632 16.4822L20.7567 16.4914L24.8434 19.3721ZM24.7917 19.4794L19.9984 18.0567L19.9913 18.0806L19.9845 18.1046L24.7917 19.4794ZM22.3678 23.6515L19.0481 19.9126L19.0419 19.9181L22.3678 23.6515ZM22.2583 23.9794L17.3289 24.8169L17.3304 24.826L17.332 24.8351L22.2583 23.9794ZM24.7554 27.1562L22.5935 31.6647L22.5996 31.6676L24.7554 27.1562ZM25.6929 27.4298L26.8537 22.5665L26.8501 22.5656L25.6929 27.4298ZM30.3948 30.9821L25.536 32.1619L25.5373 32.1673L30.3948 30.9821ZM30.9894 30.8055L26.1306 31.9853L26.1319 31.9908L30.9894 30.8055ZM25.8234 26.7658L24.659 31.6284L24.662 31.6291L25.8234 26.7658ZM25.001 26.5323L27.1803 22.0322L27.171 22.0277L27.1616 22.0232L25.001 26.5323ZM22.9015 24.0439L19.4631 20.4139L17.3977 22.3702L18.0243 25.1453L22.9015 24.0439ZM25.3623 19.7415L21.2612 16.8812L20.7922 17.5537L20.5625 18.3407L25.3623 19.7415ZM25.8024 16.3603L20.8061 16.5527L20.8751 18.3447L22.0674 19.6844L25.8024 16.3603ZM20.1396 9.51112L20.2185 4.51174L20.2137 4.51167L20.1396 9.51112ZM20.0479 9.50977L20.1219 4.51031L20.0702 4.50955L20.0185 4.50985L20.0479 9.50977ZM14.3605 16.1838L17.5089 20.0681L19.2248 18.6773L19.3522 16.4722L14.3605 16.1838ZM14.912 20.1353L19.6603 18.5687L19.3696 17.6878L18.7824 16.9698L14.912 20.1353ZM17.1008 23.8986L21.98 24.9909L22.5773 22.3232L20.6538 20.3807L17.1008 23.8986ZM14.9994 26.3944L12.8404 21.8846L12.8337 21.8878L14.9994 26.3944ZM14.2134 26.6334L12.9468 21.7965L12.9453 21.7969L14.2134 26.6334ZM9.01041 30.8069L4.15176 29.6264L4.15068 29.6309L9.01041 30.8069ZM7.84711 36.0279C9.3356 36.4557 10.8983 36.2018 12.1508 35.4027L6.77201 26.9724C7.88343 26.2633 9.27867 26.0345 10.6095 26.417L7.84711 36.0279ZM12.1508 35.4027C13.3794 34.6188 14.1508 33.4241 14.4579 32.1858L4.75207 29.7783C5.01623 28.7134 5.68439 27.6664 6.77201 26.9724L12.1508 35.4027ZM14.4636 32.1626C14.4431 32.2471 14.3828 32.3866 14.2787 32.5146C14.1896 32.6244 14.1343 32.6448 14.2001 32.6055C14.2731 32.562 14.4201 32.4896 14.6798 32.4002C14.9474 32.3082 15.2259 32.2331 15.6262 32.1279L13.0849 22.4562C12.0929 22.7168 6.17929 23.9043 4.74638 29.8015L14.4636 32.1626ZM15.6234 32.1286C15.7935 32.084 16.664 31.8783 17.394 31.5307L13.0949 22.502C13.1695 22.4665 13.2325 22.4395 13.2799 22.4202C13.3276 22.4008 13.3655 22.3867 13.3909 22.3776C13.4165 22.3684 13.434 22.3627 13.4414 22.3603C13.4489 22.3579 13.4496 22.3577 13.4421 22.36C13.4346 22.3622 13.4215 22.3661 13.4013 22.3717C13.3812 22.3774 13.3565 22.3842 13.3256 22.3925C13.2947 22.4009 13.26 22.4101 13.2198 22.4207C13.1792 22.4314 13.1365 22.4426 13.0878 22.4554L15.6234 32.1286ZM17.4035 31.5262C20.9536 29.8265 22.2907 26.8679 22.6679 24.6947L12.8152 22.9845C12.8228 22.9407 12.8508 22.8206 12.9478 22.6774C12.9969 22.6049 13.0494 22.5485 13.0931 22.511C13.1366 22.4737 13.1441 22.4784 13.0853 22.5066L17.4035 31.5262ZM22.668 24.6942C22.8141 23.8522 22.7581 22.9813 22.4972 22.1563L12.9626 25.1716C12.7374 24.4594 12.6894 23.7097 12.8151 22.985L22.668 24.6942ZM22.4972 22.1563C22.236 21.3306 21.7652 20.5401 21.0818 19.8916L14.1982 27.1453C13.5969 26.5747 13.1881 25.8846 12.9626 25.1716L22.4972 22.1563ZM21.0879 19.8973C20.9103 19.7283 20.5198 19.2067 20.2266 18.3011L10.7128 21.3814C11.3921 23.4795 12.5429 25.5691 14.1922 27.1395L21.0879 19.8973ZM20.2339 18.3239C20.0293 17.6816 19.6981 17.0617 19.2376 16.5125L11.575 22.9378C11.1707 22.4556 10.8826 21.9148 10.7055 21.3587L20.2339 18.3239ZM19.2462 16.5228C19.1683 16.4294 19.1737 16.4108 19.2137 16.499C19.2353 16.5469 19.2764 16.6469 19.3141 16.7986C19.3512 16.9482 19.3938 17.1832 19.3938 17.4887H9.39375C9.39375 19.7997 10.5635 21.7249 11.5664 22.9275L19.2462 16.5228ZM19.3938 17.4887C19.3938 17.868 19.3275 18.5367 18.948 19.2798C18.555 20.0491 18.0047 20.55 17.562 20.8409L12.07 12.484C11.3349 12.9671 10.5735 13.6914 10.0425 14.7308C9.52493 15.7441 9.39375 16.7299 9.39375 17.4887H19.3938ZM17.5684 20.8367C18.3345 20.3315 18.9231 19.6593 19.3221 18.9204L10.5229 14.1692C10.8697 13.527 11.3851 12.9356 12.0636 12.4882L17.5684 20.8367ZM19.3221 18.9204C19.7204 18.1828 19.9311 17.3785 19.9619 16.5773L9.96926 16.1935C9.99571 15.5048 10.1769 14.81 10.5229 14.1692L19.3221 18.9204ZM19.9617 16.5819C19.9906 15.8477 20.2389 15.3739 20.4044 15.1728C20.5601 14.9836 20.4824 15.1841 20.106 15.1866L20.0416 5.18678C13.6497 5.22797 10.1671 11.1632 9.96944 16.1889L19.9617 16.5819ZM19.7139 15.1737L19.7798 15.1785L20.4995 5.20439L20.4337 5.19964L19.7139 15.1737ZM20.0632 15.1908C19.6762 15.1849 19.6006 14.9768 19.7592 15.1756C19.9268 15.3857 20.1747 15.8777 20.1919 16.6351L30.1893 16.4087C30.0747 11.3458 26.6593 5.29054 20.2161 5.19201L20.0632 15.1908ZM20.1919 16.6377C20.2079 17.3246 20.3558 18.014 20.6399 18.6636L29.802 14.6568C30.0483 15.22 30.1756 15.8151 30.1893 16.4061L20.1919 16.6377ZM20.6399 18.6636C20.9242 19.3137 21.3467 19.927 21.9065 20.4443L28.6938 13.1005C29.187 13.5563 29.5555 14.093 29.802 14.6568L20.6399 18.6636ZM21.8875 20.4267C21.4715 20.0382 21.1026 19.5271 20.8613 18.9144C20.6304 18.3279 20.5827 17.8171 20.5827 17.4901H30.5827C30.5827 16.0572 30.0949 14.4089 28.7128 13.1182L21.8875 20.4267ZM20.5827 17.4901C20.5827 16.9834 20.6979 16.6577 20.7379 16.5558C20.7845 16.4372 20.8109 16.4152 20.7697 16.473L28.9172 22.2712C29.7054 21.1637 30.5827 19.4818 30.5827 17.4901H20.5827ZM20.7567 16.4914C20.4125 16.9797 20.1605 17.5107 19.9984 18.0567L29.5851 20.9021C29.446 21.3705 29.229 21.8289 28.9302 22.2529L20.7567 16.4914ZM19.9845 18.1046C19.682 19.1624 19.2136 19.7657 19.0481 19.9126L25.6875 27.3904C27.6173 25.677 28.9167 23.24 29.599 20.8542L19.9845 18.1046ZM19.0419 19.9181C18.3156 20.5651 17.8119 21.3697 17.5297 22.2144L27.0144 25.3832C26.7707 26.1124 26.3333 26.8152 25.6937 27.3849L19.0419 19.9181ZM17.5297 22.2144C17.2478 23.0581 17.1821 23.9526 17.3289 24.8169L27.1876 23.142C27.3139 23.8853 27.2577 24.655 27.0144 25.3832L17.5297 22.2144ZM17.332 24.8351C17.7096 27.0091 19.0472 29.9641 22.5935 31.6647L26.9174 22.6478C26.8578 22.6192 26.8646 22.6141 26.9075 22.6509C26.9507 22.688 27.0029 22.744 27.0518 22.8162C27.1486 22.959 27.1768 23.0792 27.1845 23.1238L17.332 24.8351ZM22.5996 31.6676C23.4059 32.0529 24.3663 32.2538 24.5356 32.2941L26.8501 22.5656C26.7991 22.5535 26.7546 22.5429 26.7126 22.5328C26.6709 22.5227 26.6352 22.5141 26.6038 22.5063C26.5384 22.4901 26.5051 22.4812 26.4914 22.4774C26.4857 22.4758 26.4894 22.4768 26.5005 22.4802C26.5115 22.4835 26.5338 22.4905 26.5651 22.5014C26.5962 22.5121 26.6413 22.5284 26.6971 22.5507C26.7527 22.573 26.8257 22.6039 26.9113 22.6449L22.5996 31.6676ZM24.532 32.2932C24.9278 32.3877 25.1978 32.4542 25.4551 32.5368C25.705 32.617 25.8366 32.6805 25.8921 32.7123C25.9396 32.7395 25.8623 32.7043 25.7538 32.5729C25.6298 32.4225 25.5601 32.2613 25.536 32.1619L35.2536 29.8022C34.5427 26.8744 32.6618 25.0676 30.8696 24.0391C29.2469 23.1079 27.5395 22.7301 26.8537 22.5665L24.532 32.2932ZM25.5373 32.1673C25.69 32.7929 25.9585 33.404 26.3467 33.9606L34.5495 28.2411C34.8883 28.727 35.1207 29.2573 35.2523 29.7968L25.5373 32.1673ZM26.3467 33.9606C26.7352 34.5179 27.2422 35.0177 27.8576 35.4086L33.2193 26.9676C33.7647 27.314 34.2102 27.7545 34.5495 28.2411L26.3467 33.9606ZM27.8576 35.4086C28.4748 35.8007 29.182 36.0704 29.9398 36.1795L31.3647 26.2816C32.0424 26.3791 32.6723 26.6201 33.2193 26.9676L27.8576 35.4086ZM29.9398 36.1795C30.6986 36.2888 31.4677 36.2309 32.1952 36.015L29.3491 26.4285C29.9985 26.2357 30.6862 26.1839 31.3647 26.2816L29.9398 36.1795ZM32.1952 36.015C32.921 35.7995 33.5705 35.4373 34.1144 34.9758L27.6452 27.3502C28.1251 26.9431 28.7013 26.6208 29.3491 26.4285L32.1952 36.015ZM34.1144 34.9758C34.6572 34.5153 35.0838 33.9662 35.3913 33.3772L26.5266 28.7493C26.7937 28.2376 27.1665 27.7563 27.6452 27.3502L34.1144 34.9758ZM35.3913 33.3772C35.6985 32.7886 35.8877 32.1594 35.9628 31.5253L26.032 30.3503C26.0966 29.8045 26.2597 29.2606 26.5266 28.7493L35.3913 33.3772ZM35.9628 31.5253C36.0378 30.8913 35.9996 30.2459 35.8469 29.6203L26.1319 31.9908C26.0003 31.4513 25.9675 30.8958 26.032 30.3503L35.9628 31.5253ZM35.8482 29.6257C34.3167 23.3183 28.0693 22.1616 26.9847 21.9026L24.662 31.6291C25.0614 31.7245 25.349 31.7953 25.6322 31.8877C25.9082 31.9778 26.0827 32.059 26.1858 32.1195C26.2809 32.1754 26.2642 32.1838 26.2122 32.1196C26.1464 32.0385 26.1265 31.9686 26.1306 31.9853L35.8482 29.6257ZM26.9878 21.9033C26.893 21.8806 26.8227 21.8638 26.7588 21.848C26.6953 21.8324 26.6605 21.8234 26.6436 21.8188C26.6229 21.8132 26.6544 21.8211 26.717 21.8419C26.7505 21.853 26.8058 21.872 26.8765 21.8995C26.9449 21.9261 27.051 21.9696 27.1803 22.0322L22.8218 31.0324C23.3578 31.292 23.8761 31.4294 24.0242 31.4696C24.2542 31.532 24.5041 31.5913 24.659 31.6284L26.9878 21.9033ZM27.1616 22.0232C27.1234 22.0049 27.262 22.0647 27.4368 22.2719C27.623 22.4926 27.7336 22.7429 27.7787 22.9426L18.0243 25.1453C18.6545 27.9363 20.5081 29.9238 22.8404 31.0413L27.1616 22.0232ZM26.3399 27.674C28.1818 25.9293 29.4636 23.5357 30.1621 21.1422L20.5625 18.3407C20.2442 19.4316 19.7471 20.1448 19.4631 20.4139L26.3399 27.674ZM29.4634 22.6017C30.3666 21.3067 31.1988 19.5225 31.1988 17.4894H21.1988C21.1988 17.119 21.2755 16.8945 21.2962 16.8388C21.3202 16.7742 21.3217 16.7945 21.2612 16.8812L29.4634 22.6017ZM31.1988 17.4894C31.1988 16.0015 30.7349 14.3817 29.5375 13.0363L22.0674 19.6844C21.7611 19.3403 21.5288 18.9409 21.3817 18.5217C21.2377 18.1117 21.1988 17.7515 21.1988 17.4894H31.1988ZM30.7987 16.168C30.5898 10.7428 26.8529 4.61644 20.2185 4.51175L20.0608 14.5105C19.8818 14.5077 19.9561 14.4075 20.2051 14.7093C20.4658 15.0252 20.7714 15.6507 20.8061 16.5527L30.7987 16.168ZM20.2137 4.51167L20.1219 4.51031L19.9739 14.5092L20.0656 14.5106L20.2137 4.51167ZM20.0185 4.50985C13.4651 4.54842 9.67787 10.5473 9.36884 15.8954L19.3522 16.4722C19.4026 15.5994 19.7101 14.9953 19.9689 14.6911C20.218 14.3982 20.2802 14.5085 20.0774 14.5097L20.0185 4.50985ZM11.2121 12.2995C9.51128 13.6781 8.77947 15.6224 8.77947 17.4901H18.7795C18.7795 17.8025 18.7228 18.2638 18.493 18.7797C18.2567 19.3103 17.9036 19.7482 17.5089 20.0681L11.2121 12.2995ZM8.77947 17.4901C8.77947 19.8469 9.89149 21.8945 11.0417 23.3007L18.7824 16.9698C18.6824 16.8475 18.6587 16.7846 18.6717 16.8149C18.6796 16.8334 18.704 16.8939 18.7278 16.9974C18.7514 17.0999 18.7795 17.267 18.7795 17.4901H8.77947ZM10.1638 21.7018C10.8529 23.7906 11.9809 25.8341 13.5478 27.4166L20.6538 20.3807C20.3828 20.1069 19.967 19.4985 19.6603 18.5687L10.1638 21.7018ZM12.2216 22.8063C12.266 22.6082 12.3757 22.3576 12.5625 22.1357C12.738 21.9273 12.8777 21.8667 12.8404 21.8846L17.1584 30.9043C19.4991 29.7837 21.3538 27.7885 21.98 24.9909L12.2216 22.8063ZM12.8337 21.8878C12.9423 21.8357 13.0308 21.7988 13.088 21.776C13.147 21.7525 13.1927 21.7361 13.2199 21.7266C13.2479 21.7169 13.2666 21.7109 13.2733 21.7088C13.2804 21.7066 13.2806 21.7066 13.2724 21.709C13.254 21.7144 13.2194 21.7242 13.16 21.7402C13.1006 21.7562 13.0335 21.7738 12.9468 21.7965L15.4801 31.4703C15.5485 31.4524 16.4653 31.2374 17.1652 30.901L12.8337 21.8878ZM12.9453 21.7969C11.8292 22.0895 5.67014 23.3769 4.15176 29.6264L13.8691 31.9874C13.8757 31.9599 13.8634 32.0103 13.8157 32.07C13.7812 32.113 13.7851 32.0891 13.898 32.0204C14.0179 31.9474 14.2071 31.8565 14.4922 31.7569C14.7844 31.6548 15.0799 31.5752 15.4815 31.4699L12.9453 21.7969ZM4.15068 29.6309C3.84949 30.8755 3.99822 32.2136 4.61327 33.3865L13.4694 28.7424C14.0028 29.7594 14.1292 30.9122 13.8701 31.9829L4.15068 29.6309ZM4.61327 33.3865C5.23345 34.5692 6.33927 35.5835 7.81461 36.0184L10.642 26.4264C11.9597 26.8148 12.931 27.7155 13.4694 28.7424L4.61327 33.3865Z" fill="black" mask="url(#path-2-inside-1_912_158)"/>
<defs>
<filter id="filter0_d_912_158" x="0" y="0" width="40" height="40" filterUnits="userSpaceOnUse" color-interpolation-filters="sRGB">
<feFlood flood-opacity="0" result="BackgroundImageFix"/>
<feColorMatrix in="SourceAlpha" type="matrix" values="0 0 0 0 0 0 0 0 0 0 0 0 0 0 0 0 0 0 127 0" result="hardAlpha"/>
<feOffset/>
<feGaussianBlur stdDeviation="2.5"/>
<feComposite in2="hardAlpha" operator="out"/>
<feColorMatrix type="matrix" values="0 0 0 0 0 0 0 0 0 0 0 0 0 0 0 0 0 0 0.2 0"/>
<feBlend mode="normal" in2="BackgroundImageFix" result="effect1_dropShadow_912_158"/>
<feBlend mode="normal" in="SourceGraphic" in2="effect1_dropShadow_912_158" result="shape"/>
</filter>
</defs>
</svg>
