<svg width="24" height="24" viewBox="0 0 24 24" fill="none" xmlns="http://www.w3.org/2000/svg">
<path fill-rule="evenodd" clip-rule="evenodd" d="M24 11.8493C24 18.3934 18.6274 23.6986 12 23.6986C5.37258 23.6986 0 18.3934 0 11.8493C0 5.3051 5.37258 0 12 0C18.6274 0 24 5.3051 24 11.8493ZM13.5157 11.5374C13.5157 12.5727 12.6694 13.4084 11.621 13.4084C10.5726 13.4084 9.72624 12.5727 9.72624 11.5374V7.79559C9.72624 6.76033 10.5726 5.92464 11.621 5.92464C12.6694 5.92464 13.5157 6.76033 13.5157 7.79559V11.5374ZM11.621 7.17196C11.2736 7.17196 10.9895 7.4526 10.9895 7.79561V11.5375C10.9895 11.8805 11.2736 12.1612 11.621 12.1612C11.9747 12.1612 12.2526 11.8867 12.2526 11.5375V7.79561C12.2526 7.4526 11.9683 7.17196 11.621 7.17196ZM16.0421 11.5374H14.9684C14.9684 13.4084 13.3642 14.718 11.621 14.718C9.87792 14.718 8.27369 13.4084 8.27369 11.5374H7.2C7.2 13.6641 8.9179 15.4228 10.9895 15.7284V17.7739H12.2526V15.7284C14.3242 15.4228 16.0421 13.6641 16.0421 11.5374Z" fill="url(#paint0_linear_918_149)"/>
<defs>
<linearGradient id="paint0_linear_918_149" x1="0" y1="11.8493" x2="24" y2="11.8493" gradientUnits="userSpaceOnUse">
<stop offset="0.9999" stop-color="#45B348"/>
<stop offset="1" stop-color="#1E4D1F"/>
</linearGradient>
</defs>
</svg>
