<svg width="25" height="26" viewBox="0 0 25 26" fill="none" xmlns="http://www.w3.org/2000/svg">
<path d="M24.6557 6.10451V7.92516C24.6557 8.09175 24.5733 8.2286 24.4086 8.33569C24.2439 8.44279 24.0334 8.49634 23.7771 8.49634H19.1645C18.7435 10.2099 17.5629 11.6021 15.6226 12.6731C13.6824 13.7441 11.1564 14.3986 8.04468 14.6365C11.1015 16.7547 15.3023 19.9438 20.6471 24.2039C20.9034 24.3942 20.94 24.5965 20.7569 24.8107C20.6105 25.0249 20.3451 25.132 19.9607 25.132H14.6067C14.3139 25.132 14.0851 25.0606 13.9203 24.9178C8.31925 20.5507 3.76151 17.1533 0.247106 14.7258C0.0823688 14.6187 0 14.4878 0 14.3331V12.0662C0 11.9115 0.0869448 11.7777 0.260834 11.6646C0.434724 11.5516 0.640646 11.495 0.8786 11.495H3.9537C6.36985 11.495 8.31467 11.2392 9.78815 10.7275C11.2616 10.2158 12.1997 9.47211 12.6024 8.49634H0.8786C0.622342 8.49634 0.411844 8.44279 0.247106 8.33569C0.0823688 8.2286 0 8.09175 0 7.92516V6.10451C0 5.93792 0.0823688 5.80107 0.247106 5.69397C0.411844 5.58688 0.622342 5.53333 0.8786 5.53333H12.218C11.1747 4.18867 8.72194 3.51634 4.85976 3.51634H0.8786C0.640646 3.51634 0.434724 3.45982 0.260834 3.34677C0.0869448 3.23373 0 3.09985 0 2.94516V0.571182C0 0.404588 0.0823688 0.267742 0.247106 0.160645C0.411844 0.0535484 0.622342 0 0.8786 0H23.7222C23.9785 0 24.189 0.0535484 24.3537 0.160645C24.5184 0.267742 24.6008 0.404588 24.6008 0.571182V2.39183C24.6008 2.55842 24.5184 2.69527 24.3537 2.80236C24.189 2.90946 23.9785 2.96301 23.7222 2.96301H17.3249C18.1852 3.68889 18.7709 4.54566 19.0821 5.53333H23.7771C24.0334 5.53333 24.2439 5.58688 24.4086 5.69397C24.5733 5.80107 24.6557 5.93792 24.6557 6.10451Z" fill="black" fill-opacity="0.65"/>
</svg>
