<svg width="28" height="28" viewBox="0 0 28 28" fill="none" xmlns="http://www.w3.org/2000/svg">
<path d="M21.4112 0H7.07893C3.58679 0 0.755859 2.93813 0.755859 6.5625V21.4375C0.755859 25.0619 3.58679 28 7.07893 28H21.4112C24.9033 28 27.7343 25.0619 27.7343 21.4375V6.5625C27.7343 2.93813 24.9033 0 21.4112 0Z" fill="white"/>
<path d="M21.4112 0H7.07893C3.58679 0 0.755859 2.93813 0.755859 6.5625V21.4375C0.755859 25.0619 3.58679 28 7.07893 28H21.4112C24.9033 28 27.7343 25.0619 27.7343 21.4375V6.5625C27.7343 2.93813 24.9033 0 21.4112 0Z" fill="#1D9BF0"/>
<path d="M21.7879 9.99807C21.7995 10.1717 21.7995 10.3452 21.7995 10.5204C21.7995 15.8576 17.8847 22.013 10.7262 22.013V22.0097C8.61151 22.0129 6.54058 21.3843 4.76074 20.199C5.06825 20.2374 5.37724 20.2566 5.68707 20.2573C7.43982 20.2588 9.14216 19.6486 10.5205 18.5249C9.70841 18.509 8.92139 18.2301 8.2695 17.7272C7.6176 17.2243 7.13343 16.5225 6.88466 15.72C7.46773 15.8367 8.06882 15.8129 8.64163 15.6505C6.82607 15.2697 5.51983 13.6141 5.51983 11.6913V11.6401C6.06107 11.953 6.66681 12.1264 7.28607 12.1457C5.5761 10.9595 5.04897 8.5984 6.08153 6.75237C7.05858 8.00023 8.27762 9.02081 9.65948 9.74782C11.0413 10.4748 12.5551 10.892 14.1024 10.9723C13.9482 10.283 13.971 9.56384 14.1685 8.88661C14.3661 8.20938 14.7315 7.59786 15.2283 7.1132C16.7957 5.58392 19.261 5.66234 20.7345 7.28831C21.606 7.10972 22.4418 6.77812 23.2059 6.30776C22.9153 7.24299 22.3074 8.03684 21.4951 8.54164C22.2665 8.4473 23.0199 8.23297 23.7299 7.90584C23.2077 8.71762 22.55 9.42606 21.7879 9.99807Z" fill="white"/>
</svg>
