<svg width="53" height="18" viewBox="0 0 53 18" fill="none" xmlns="http://www.w3.org/2000/svg">
<path d="M27.4103 5.75439C27.3801 8.26187 29.5351 9.66105 31.1584 10.493C32.8263 11.3466 33.3865 11.894 33.3799 12.6574C33.3674 13.8255 32.0495 14.3411 30.8162 14.3612C28.6645 14.3962 27.4134 13.7502 26.4188 13.2616L25.6437 17.0761C26.6416 17.5597 28.4894 17.9815 30.4054 18C34.9032 18 37.8457 15.665 37.8617 12.0446C37.8793 7.44992 31.8188 7.1956 31.8602 5.14189C31.8745 4.51916 32.4395 3.85462 33.6776 3.68566C34.2904 3.60031 35.982 3.53498 37.9 4.46386L38.6527 0.77319C37.6213 0.378212 36.2957 0 34.6452 0C30.4119 0 27.4343 2.36682 27.4103 5.75439ZM45.886 0.317898C45.0647 0.317898 44.3726 0.821745 44.0637 1.59493L37.6389 17.7289H42.1333L43.0277 15.1293H48.5198L49.0387 17.7289H53L49.5432 0.317898H45.886ZM46.5147 5.02127L47.8118 11.5593H44.2596L46.5147 5.02127ZM21.961 0.318115L18.4183 17.7287H22.7012L26.2422 0.31768L21.961 0.318115ZM15.6253 0.318115L11.1675 12.1685L9.36423 2.09225C9.15264 0.967412 8.31707 0.317898 7.38915 0.317898H0.102066L0 0.823486C1.49601 1.1649 3.19573 1.71556 4.22551 2.30476C4.85571 2.66468 5.03541 2.97932 5.24245 3.83459L8.65784 17.7289H13.1838L20.1226 0.317898L15.6253 0.318115Z" fill="url(#paint0_linear_950_1024)"/>
<defs>
<linearGradient id="paint0_linear_950_1024" x1="2436.62" y1="54.108" x2="2491.41" y2="-1794.36" gradientUnits="userSpaceOnUse">
<stop stop-color="#222357"/>
<stop offset="1" stop-color="#254AA5"/>
</linearGradient>
</defs>
</svg>
