<svg width="41" height="31" viewBox="0 0 41 31" fill="none" xmlns="http://www.w3.org/2000/svg">
<rect width="41" height="31" rx="5" fill="#979797"/>
<path fill-rule="evenodd" clip-rule="evenodd" d="M19.6359 22.0422C17.8654 21.6332 12.4092 18.4292 12.4092 12.6688C12.4092 11.7746 12.6743 10.903 13.167 10.1776C13.6597 9.45216 14.355 8.90962 15.1544 8.62684C15.9538 8.34406 16.8168 8.33537 17.6211 8.602C18.4254 8.86863 19.1303 9.39707 19.6359 10.1125C20.1415 9.39707 20.8464 8.86863 21.6507 8.602C22.455 8.33537 23.318 8.34406 24.1174 8.62684C24.9168 8.90962 25.6121 9.45216 26.1048 10.1776C26.5975 10.903 26.8626 11.7746 26.8626 12.6688C26.8626 18.4292 21.4064 21.6332 19.6359 22.0422ZM19.6359 20.338C22.1412 19.5455 25.2567 16.2435 25.2567 12.6688C25.2567 11.9908 25.0029 11.3406 24.5511 10.8612C24.0994 10.3818 23.4867 10.1125 22.8478 10.1125C21.7999 10.1125 20.7295 10.8223 19.6359 12.2428C18.5423 10.8223 17.4719 10.1125 16.424 10.1125C15.7851 10.1125 15.1724 10.3818 14.7207 10.8612C14.2689 11.3406 14.0151 11.9908 14.0151 12.6688C14.0151 16.2435 17.1306 19.5455 19.6359 20.338Z" fill="white"/>
</svg>
