<svg width="115" height="31" viewBox="0 0 115 31" fill="none" xmlns="http://www.w3.org/2000/svg">
<rect width="115" height="31" rx="5" fill="white"/>
<rect x="0.5" y="0.5" width="114" height="30" rx="4.5" stroke="black" stroke-opacity="0.25"/>
<path d="M46.592 21L44.368 10.504H45.744L46.848 16.216C46.944 16.7813 47.0453 17.3467 47.152 17.912C47.2587 18.4773 47.36 19.0427 47.456 19.608H47.52C47.6373 19.0427 47.76 18.4773 47.888 17.912C48.016 17.336 48.1387 16.7707 48.256 16.216L49.712 10.504H50.928L52.384 16.216C52.512 16.7707 52.64 17.336 52.768 17.912C52.896 18.4773 53.024 19.0427 53.152 19.608H53.216C53.312 19.0427 53.408 18.4773 53.504 17.912C53.6 17.336 53.7013 16.7707 53.808 16.216L54.912 10.504H56.192L54.016 21H52.416L50.832 14.68C50.736 14.2747 50.6453 13.88 50.56 13.496C50.4853 13.1013 50.4053 12.7013 50.32 12.296H50.256C50.1813 12.7013 50.096 13.1013 50 13.496C49.904 13.88 49.8133 14.2747 49.728 14.68L48.176 21H46.592ZM57.8901 21V13.224H59.2021V21H57.8901ZM58.5621 11.624C58.3061 11.624 58.0928 11.5493 57.9221 11.4C57.7621 11.24 57.6821 11.0267 57.6821 10.76C57.6821 10.504 57.7621 10.296 57.9221 10.136C58.0928 9.976 58.3061 9.896 58.5621 9.896C58.8181 9.896 59.0261 9.976 59.1861 10.136C59.3568 10.296 59.4421 10.504 59.4421 10.76C59.4421 11.0267 59.3568 11.24 59.1861 11.4C59.0261 11.5493 58.8181 11.624 58.5621 11.624ZM63.8596 21.192C63.305 21.192 62.777 21.0907 62.2756 20.888C61.7743 20.6747 61.337 20.4187 60.9636 20.12L61.6196 19.24C61.961 19.5067 62.313 19.7307 62.6756 19.912C63.0383 20.0827 63.449 20.168 63.9076 20.168C64.4196 20.168 64.8036 20.0507 65.0596 19.816C65.3156 19.5707 65.4436 19.2827 65.4436 18.952C65.4436 18.6853 65.353 18.4613 65.1716 18.28C65.001 18.0987 64.777 17.9493 64.4996 17.832C64.233 17.704 63.9556 17.5867 63.6676 17.48C63.305 17.3413 62.9476 17.1867 62.5956 17.016C62.2436 16.8347 61.9556 16.6053 61.7316 16.328C61.5076 16.04 61.3956 15.6773 61.3956 15.24C61.3956 14.6107 61.6303 14.088 62.0996 13.672C62.5796 13.2453 63.241 13.032 64.0836 13.032C64.5636 13.032 65.0116 13.1173 65.4276 13.288C65.8436 13.4587 66.201 13.6667 66.4996 13.912L65.8596 14.744C65.593 14.5413 65.3156 14.376 65.0276 14.248C64.7396 14.12 64.425 14.056 64.0836 14.056C63.593 14.056 63.2303 14.168 62.9956 14.392C62.7716 14.616 62.6596 14.8773 62.6596 15.176C62.6596 15.4213 62.7396 15.624 62.8996 15.784C63.0596 15.9333 63.2676 16.0667 63.5236 16.184C63.7796 16.2907 64.0516 16.4027 64.3396 16.52C64.713 16.6587 65.081 16.8187 65.4436 17C65.8063 17.1707 66.105 17.4053 66.3396 17.704C66.585 17.992 66.7076 18.3813 66.7076 18.872C66.7076 19.288 66.5956 19.672 66.3716 20.024C66.1583 20.376 65.8383 20.6587 65.4116 20.872C64.9956 21.0853 64.4783 21.192 63.8596 21.192ZM68.5308 21V9.608H69.8428V12.712L69.7948 14.312C70.1681 13.96 70.5574 13.6613 70.9628 13.416C71.3788 13.16 71.8534 13.032 72.3868 13.032C73.2081 13.032 73.8054 13.2933 74.1788 13.816C74.5628 14.328 74.7548 15.08 74.7548 16.072V21H73.4428V16.248C73.4428 15.5227 73.3254 14.9947 73.0908 14.664C72.8561 14.3333 72.4828 14.168 71.9708 14.168C71.5761 14.168 71.2188 14.2693 70.8988 14.472C70.5894 14.6747 70.2374 14.9733 69.8428 15.368V21H68.5308ZM78.6259 21.192C78.1352 21.192 77.7779 21.0427 77.5539 20.744C77.3405 20.4347 77.2339 19.9973 77.2339 19.432V9.608H78.5459V19.528C78.5459 19.7307 78.5832 19.88 78.6579 19.976C78.7325 20.0613 78.8179 20.104 78.9139 20.104C78.9565 20.104 78.9939 20.104 79.0259 20.104C79.0685 20.0933 79.1272 20.0827 79.2019 20.072L79.3779 21.064C79.2925 21.1067 79.1912 21.1387 79.0739 21.16C78.9565 21.1813 78.8072 21.192 78.6259 21.192ZM81.312 21V13.224H82.624V21H81.312ZM81.984 11.624C81.728 11.624 81.5147 11.5493 81.344 11.4C81.184 11.24 81.104 11.0267 81.104 10.76C81.104 10.504 81.184 10.296 81.344 10.136C81.5147 9.976 81.728 9.896 81.984 9.896C82.24 9.896 82.448 9.976 82.608 10.136C82.7787 10.296 82.864 10.504 82.864 10.76C82.864 11.0267 82.7787 11.24 82.608 11.4C82.448 11.5493 82.24 11.624 81.984 11.624ZM87.2815 21.192C86.7268 21.192 86.1988 21.0907 85.6975 20.888C85.1962 20.6747 84.7588 20.4187 84.3855 20.12L85.0415 19.24C85.3828 19.5067 85.7348 19.7307 86.0975 19.912C86.4602 20.0827 86.8708 20.168 87.3295 20.168C87.8415 20.168 88.2255 20.0507 88.4815 19.816C88.7375 19.5707 88.8655 19.2827 88.8655 18.952C88.8655 18.6853 88.7748 18.4613 88.5935 18.28C88.4228 18.0987 88.1988 17.9493 87.9215 17.832C87.6548 17.704 87.3775 17.5867 87.0895 17.48C86.7268 17.3413 86.3695 17.1867 86.0175 17.016C85.6655 16.8347 85.3775 16.6053 85.1535 16.328C84.9295 16.04 84.8175 15.6773 84.8175 15.24C84.8175 14.6107 85.0522 14.088 85.5215 13.672C86.0015 13.2453 86.6628 13.032 87.5055 13.032C87.9855 13.032 88.4335 13.1173 88.8495 13.288C89.2655 13.4587 89.6228 13.6667 89.9215 13.912L89.2815 14.744C89.0148 14.5413 88.7375 14.376 88.4495 14.248C88.1615 14.12 87.8468 14.056 87.5055 14.056C87.0148 14.056 86.6522 14.168 86.4175 14.392C86.1935 14.616 86.0815 14.8773 86.0815 15.176C86.0815 15.4213 86.1615 15.624 86.3215 15.784C86.4815 15.9333 86.6895 16.0667 86.9455 16.184C87.2015 16.2907 87.4735 16.4027 87.7615 16.52C88.1348 16.6587 88.5028 16.8187 88.8655 17C89.2282 17.1707 89.5268 17.4053 89.7615 17.704C90.0068 17.992 90.1295 18.3813 90.1295 18.872C90.1295 19.288 90.0175 19.672 89.7935 20.024C89.5802 20.376 89.2602 20.6587 88.8335 20.872C88.4175 21.0853 87.9002 21.192 87.2815 21.192ZM94.0881 21.192C93.2561 21.192 92.6748 20.952 92.3441 20.472C92.0241 19.992 91.8641 19.368 91.8641 18.6V14.296H90.7121V13.304L91.9281 13.224L92.0881 11.048H93.1921V13.224H95.2881V14.296H93.1921V18.616C93.1921 19.096 93.2775 19.4693 93.4481 19.736C93.6295 19.992 93.9441 20.12 94.3921 20.12C94.5308 20.12 94.6801 20.0987 94.8401 20.056C95.0001 20.0027 95.1441 19.9547 95.2721 19.912L95.5281 20.904C95.3148 20.9787 95.0801 21.0427 94.8241 21.096C94.5788 21.16 94.3335 21.192 94.0881 21.192Z" fill="black"/>
<path fill-rule="evenodd" clip-rule="evenodd" d="M25.6359 22.0422C23.8654 21.6332 18.4092 18.4292 18.4092 12.6688C18.4092 11.7746 18.6743 10.903 19.167 10.1776C19.6597 9.45216 20.355 8.90962 21.1544 8.62684C21.9538 8.34406 22.8168 8.33537 23.6211 8.602C24.4254 8.86863 25.1303 9.39707 25.6359 10.1125C26.1415 9.39707 26.8464 8.86863 27.6507 8.602C28.455 8.33537 29.318 8.34406 30.1174 8.62684C30.9168 8.90962 31.6121 9.45216 32.1048 10.1776C32.5975 10.903 32.8626 11.7746 32.8626 12.6688C32.8626 18.4292 27.4064 21.6332 25.6359 22.0422ZM25.6359 20.338C28.1412 19.5455 31.2567 16.2435 31.2567 12.6688C31.2567 11.9908 31.0029 11.3406 30.5511 10.8612C30.0994 10.3818 29.4867 10.1125 28.8478 10.1125C27.7999 10.1125 26.7295 10.8223 25.6359 12.2428C24.5423 10.8223 23.4719 10.1125 22.424 10.1125C21.7851 10.1125 21.1724 10.3818 20.7207 10.8612C20.2689 11.3406 20.0151 11.9908 20.0151 12.6688C20.0151 16.2435 23.1306 19.5455 25.6359 20.338Z" fill="black"/>
</svg>
